<?xml version="1.0" standalone="no"?>
<!DOCTYPE svg PUBLIC "-//W3C//DTD SVG 20010904//EN"
 "http://www.w3.org/TR/2001/REC-SVG-20010904/DTD/svg10.dtd">
<svg version="1.0" xmlns="http://www.w3.org/2000/svg"
 width="128.000000pt" height="128.000000pt" viewBox="0 0 128.000000 128.000000"
 preserveAspectRatio="xMidYMid meet">
<metadata>
Created by potrace 1.14, written by Peter Selinger 2001-2017
</metadata>
<g transform="translate(0.000000,128.000000) scale(0.100000,-0.100000)"
fill="#000000" stroke="none">
<path d="M577 1229 c-52 -12 -110 -43 -142 -77 l-28 -30 -56 20 c-137 48 -268
-8 -329 -141 -46 -99 -17 -221 69 -295 23 -19 58 -41 78 -47 58 -18 52 -1 65
-214 6 -109 18 -274 21 -310 2 -16 4 -44 4 -61 l1 -30 375 -1 c207 0 377 3
379 6 5 8 21 196 31 376 15 239 8 216 66 234 52 17 113 73 143 132 21 42 25
63 22 118 -3 81 -28 134 -91 189 -72 63 -192 80 -274 38 -30 -16 -31 -16 -63
15 -70 67 -178 98 -271 78z m116 -78 c54 -13 100 -47 136 -103 l32 -48 25 25
c119 119 316 39 316 -129 0 -92 -85 -176 -179 -176 -18 0 -35 -6 -38 -12 -2
-7 -6 -71 -10 -143 -6 -136 -14 -266 -20 -325 -2 -19 -4 -54 -4 -77 l-1 -43
-310 0 -310 0 -1 43 c-1 23 -3 60 -5 82 -6 69 -13 195 -19 325 -4 69 -8 130
-10 136 -2 6 -27 14 -56 17 -167 20 -219 238 -77 330 76 49 160 39 231 -27 31
-28 37 -31 37 -16 0 22 54 91 86 111 61 37 109 45 177 30z"/>
<path d="M440 773 l-31 -25 33 -30 c104 -95 274 -98 389 -8 l40 33 -27 28 -27
28 -31 -24 c-95 -72 -220 -71 -295 4 l-20 20 -31 -26z"/>
</g>
</svg>
